<?xml version="1.0" encoding="UTF-8" standalone="no"?>
<!DOCTYPE svg PUBLIC "-//W3C//DTD SVG 1.1//EN"
 "http://www.w3.org/Graphics/SVG/1.1/DTD/svg11.dtd">
<!-- Generated by graphviz version 12.1.2 (20240928.0832)
 -->
<!-- Title: public.role_features Pages: 1 -->
<svg width="382pt" height="228pt"
 viewBox="0.00 0.00 382.33 228.40" xmlns="http://www.w3.org/2000/svg" xmlns:xlink="http://www.w3.org/1999/xlink">
<g id="graph0" class="graph" transform="scale(1 1) rotate(0) translate(4 224.4)">
<title>public.role_features</title>
<polygon fill="white" stroke="none" points="-4,4 -4,-224.4 378.33,-224.4 378.33,4 -4,4"/>
<!-- public.role_features -->
<g id="node1" class="node">
<title>public.role_features</title>
<polygon fill="#efefef" stroke="none" points="46.2,-138.6 46.2,-174.2 328.13,-174.2 328.13,-138.6 46.2,-138.6"/>
<polygon fill="none" stroke="black" points="46.2,-138.6 46.2,-174.2 328.13,-174.2 328.13,-138.6 46.2,-138.6"/>
<text text-anchor="start" x="53.2" y="-152" font-family="Arial Bold" font-size="18.00">public.role_features</text>
<text text-anchor="start" x="196.64" y="-152" font-family="Arial" font-size="14.00">    </text>
<text text-anchor="start" x="227.75" y="-152" font-family="Arial" font-size="14.00" fill="#666666">[BASE TABLE]</text>
<polygon fill="none" stroke="black" points="46.2,-107.8 46.2,-138.6 328.13,-138.6 328.13,-107.8 46.2,-107.8"/>
<text text-anchor="start" x="53.2" y="-120" font-family="Arial" font-size="14.00">role_id </text>
<text text-anchor="start" x="99.12" y="-120" font-family="Arial" font-size="14.00" fill="#666666">[bigint]</text>
<polygon fill="none" stroke="black" points="46.2,-77 46.2,-107.8 328.13,-107.8 328.13,-77 46.2,-77"/>
<text text-anchor="start" x="53.2" y="-89.2" font-family="Arial" font-size="14.00">feature_id </text>
<text text-anchor="start" x="119.36" y="-89.2" font-family="Arial" font-size="14.00" fill="#666666">[bigint]</text>
<polygon fill="none" stroke="black" points="46.2,-46.2 46.2,-77 328.13,-77 328.13,-46.2 46.2,-46.2"/>
<text text-anchor="start" x="53.2" y="-58.4" font-family="Arial" font-size="14.00">created_at </text>
<text text-anchor="start" x="123.25" y="-58.4" font-family="Arial" font-size="14.00" fill="#666666">[timestamp with time zone]</text>
<polygon fill="none" stroke="black" stroke-width="3" points="44.7,-44.7 44.7,-175.7 329.63,-175.7 329.63,-44.7 44.7,-44.7"/>
</g>
</g>
</svg>
