<?xml version="1.0" encoding="UTF-8" standalone="no"?>
<!DOCTYPE svg PUBLIC "-//W3C//DTD SVG 1.1//EN"
 "http://www.w3.org/Graphics/SVG/1.1/DTD/svg11.dtd">
<!-- Generated by graphviz version 12.1.2 (20240928.0832)
 -->
<!-- Title: public.staff_sessions Pages: 1 -->
<svg width="388pt" height="664pt"
 viewBox="0.00 0.00 388.37 663.60" xmlns="http://www.w3.org/2000/svg" xmlns:xlink="http://www.w3.org/1999/xlink">
<g id="graph0" class="graph" transform="scale(1 1) rotate(0) translate(4 659.6)">
<title>public.staff_sessions</title>
<polygon fill="white" stroke="none" points="-4,4 -4,-659.6 384.37,-659.6 384.37,4 -4,4"/>
<!-- public.staff_sessions -->
<g id="node1" class="node">
<title>public.staff_sessions</title>
<polygon fill="#efefef" stroke="none" points="46.2,-573.8 46.2,-609.4 334.17,-609.4 334.17,-573.8 46.2,-573.8"/>
<polygon fill="none" stroke="black" points="46.2,-573.8 46.2,-609.4 334.17,-609.4 334.17,-573.8 46.2,-573.8"/>
<text text-anchor="start" x="53.2" y="-587.2" font-family="Arial Bold" font-size="18.00">public.staff_sessions</text>
<text text-anchor="start" x="202.68" y="-587.2" font-family="Arial" font-size="14.00">    </text>
<text text-anchor="start" x="233.8" y="-587.2" font-family="Arial" font-size="14.00" fill="#666666">[BASE TABLE]</text>
<polygon fill="none" stroke="black" points="46.2,-543 46.2,-573.8 334.17,-573.8 334.17,-543 46.2,-543"/>
<text text-anchor="start" x="53.2" y="-555.2" font-family="Arial" font-size="14.00">session_id </text>
<text text-anchor="start" x="123.24" y="-555.2" font-family="Arial" font-size="14.00" fill="#666666">[bigint]</text>
<polygon fill="none" stroke="black" points="46.2,-512.2 46.2,-543 334.17,-543 334.17,-512.2 46.2,-512.2"/>
<text text-anchor="start" x="53.2" y="-524.4" font-family="Arial" font-size="14.00">staff_id </text>
<text text-anchor="start" x="102.23" y="-524.4" font-family="Arial" font-size="14.00" fill="#666666">[bigint]</text>
<polygon fill="none" stroke="black" points="46.2,-481.4 46.2,-512.2 334.17,-512.2 334.17,-481.4 46.2,-481.4"/>
<text text-anchor="start" x="53.2" y="-493.6" font-family="Arial" font-size="14.00">session_data </text>
<text text-anchor="start" x="139.59" y="-493.6" font-family="Arial" font-size="14.00" fill="#666666">[text]</text>
<polygon fill="none" stroke="black" points="46.2,-450.6 46.2,-481.4 334.17,-481.4 334.17,-450.6 46.2,-450.6"/>
<text text-anchor="start" x="53.2" y="-462.8" font-family="Arial" font-size="14.00">expires_at </text>
<text text-anchor="start" x="121.68" y="-462.8" font-family="Arial" font-size="14.00" fill="#666666">[timestamp with time zone]</text>
<polygon fill="none" stroke="black" points="46.2,-419.8 46.2,-450.6 334.17,-450.6 334.17,-419.8 46.2,-419.8"/>
<text text-anchor="start" x="53.2" y="-432" font-family="Arial" font-size="14.00">created_at </text>
<text text-anchor="start" x="123.25" y="-432" font-family="Arial" font-size="14.00" fill="#666666">[timestamp with time zone]</text>
<polygon fill="none" stroke="black" stroke-width="3" points="44.7,-418.3 44.7,-610.9 335.67,-610.9 335.67,-418.3 44.7,-418.3"/>
</g>
<!-- public.staffs -->
<g id="node2" class="node">
<title>public.staffs</title>
<polygon fill="#efefef" stroke="none" points="63.35,-258.8 63.35,-294.4 317.03,-294.4 317.03,-258.8 63.35,-258.8"/>
<polygon fill="none" stroke="black" points="63.35,-258.8 63.35,-294.4 317.03,-294.4 317.03,-258.8 63.35,-258.8"/>
<text text-anchor="start" x="83.7" y="-272.2" font-family="Arial Bold" font-size="18.00">public.staffs</text>
<text text-anchor="start" x="172.18" y="-272.2" font-family="Arial" font-size="14.00">    </text>
<text text-anchor="start" x="203.3" y="-272.2" font-family="Arial" font-size="14.00" fill="#666666">[BASE TABLE]</text>
<polygon fill="none" stroke="black" points="63.35,-228 63.35,-258.8 317.03,-258.8 317.03,-228 63.35,-228"/>
<text text-anchor="start" x="70.35" y="-240.2" font-family="Arial" font-size="14.00">staff_id </text>
<text text-anchor="start" x="119.37" y="-240.2" font-family="Arial" font-size="14.00" fill="#666666">[bigint]</text>
<polygon fill="none" stroke="black" points="63.35,-197.2 63.35,-228 317.03,-228 317.03,-197.2 63.35,-197.2"/>
<text text-anchor="start" x="70.35" y="-209.4" font-family="Arial" font-size="14.00">organization_id </text>
<text text-anchor="start" x="169.19" y="-209.4" font-family="Arial" font-size="14.00" fill="#666666">[bigint]</text>
<polygon fill="none" stroke="black" points="63.35,-166.4 63.35,-197.2 317.03,-197.2 317.03,-166.4 63.35,-166.4"/>
<text text-anchor="start" x="70.35" y="-178.6" font-family="Arial" font-size="14.00">email </text>
<text text-anchor="start" x="107.69" y="-178.6" font-family="Arial" font-size="14.00" fill="#666666">[varchar(255)]</text>
<polygon fill="none" stroke="black" points="63.35,-135.6 63.35,-166.4 317.03,-166.4 317.03,-135.6 63.35,-135.6"/>
<text text-anchor="start" x="70.35" y="-147.8" font-family="Arial" font-size="14.00">staff_name </text>
<text text-anchor="start" x="143.5" y="-147.8" font-family="Arial" font-size="14.00" fill="#666666">[varchar(255)]</text>
<polygon fill="none" stroke="black" points="63.35,-104.8 63.35,-135.6 317.03,-135.6 317.03,-104.8 63.35,-104.8"/>
<text text-anchor="start" x="70.35" y="-117" font-family="Arial" font-size="14.00">created_at </text>
<text text-anchor="start" x="140.39" y="-117" font-family="Arial" font-size="14.00" fill="#666666">[timestamp with time zone]</text>
<polygon fill="none" stroke="black" points="63.35,-74 63.35,-104.8 317.03,-104.8 317.03,-74 63.35,-74"/>
<text text-anchor="start" x="70.35" y="-86.2" font-family="Arial" font-size="14.00">updated_at </text>
<text text-anchor="start" x="144.3" y="-86.2" font-family="Arial" font-size="14.00" fill="#666666">[timestamp with time zone]</text>
<polygon fill="none" stroke="black" points="63.35,-43.2 63.35,-74 317.03,-74 317.03,-43.2 63.35,-43.2"/>
<text text-anchor="start" x="70.35" y="-55.4" font-family="Arial" font-size="14.00">deleted_at </text>
<text text-anchor="start" x="139.63" y="-55.4" font-family="Arial" font-size="14.00" fill="#666666">[timestamp with time zone]</text>
</g>
<!-- public.staff_sessions&#45;&gt;public.staffs -->
<g id="edge1" class="edge">
<title>public.staff_sessions:staff_id&#45;&gt;public.staffs:staff_id</title>
<path fill="none" stroke="black" stroke-dasharray="5,2" d="M345.16,-524.97C396.35,-496.32 377.71,-243.4 318.03,-243.4"/>
<polygon fill="black" stroke="black" points="345.17,-524.97 334.35,-523.16 340.01,-526.33 335.82,-527.43 335.82,-527.43 335.82,-527.43 340.01,-526.33 336.64,-531.87 345.17,-524.97"/>
</g>
</g>
</svg>
