<?xml version="1.0" encoding="UTF-8" standalone="no"?>
<!DOCTYPE svg PUBLIC "-//W3C//DTD SVG 1.1//EN"
 "http://www.w3.org/Graphics/SVG/1.1/DTD/svg11.dtd">
<!-- Generated by graphviz version 12.1.2 (20240928.0832)
 -->
<!-- Title: public.staff_sessions Pages: 1 -->
<svg width="388pt" height="290pt"
 viewBox="0.00 0.00 388.37 290.00" xmlns="http://www.w3.org/2000/svg" xmlns:xlink="http://www.w3.org/1999/xlink">
<g id="graph0" class="graph" transform="scale(1 1) rotate(0) translate(4 286)">
<title>public.staff_sessions</title>
<polygon fill="white" stroke="none" points="-4,4 -4,-286 384.37,-286 384.37,4 -4,4"/>
<!-- public.staff_sessions -->
<g id="node1" class="node">
<title>public.staff_sessions</title>
<polygon fill="#efefef" stroke="none" points="46.2,-200.2 46.2,-235.8 334.17,-235.8 334.17,-200.2 46.2,-200.2"/>
<polygon fill="none" stroke="black" points="46.2,-200.2 46.2,-235.8 334.17,-235.8 334.17,-200.2 46.2,-200.2"/>
<text text-anchor="start" x="53.2" y="-213.6" font-family="Arial Bold" font-size="18.00">public.staff_sessions</text>
<text text-anchor="start" x="202.68" y="-213.6" font-family="Arial" font-size="14.00">    </text>
<text text-anchor="start" x="233.8" y="-213.6" font-family="Arial" font-size="14.00" fill="#666666">[BASE TABLE]</text>
<polygon fill="none" stroke="black" points="46.2,-169.4 46.2,-200.2 334.17,-200.2 334.17,-169.4 46.2,-169.4"/>
<text text-anchor="start" x="53.2" y="-181.6" font-family="Arial" font-size="14.00">session_id </text>
<text text-anchor="start" x="123.24" y="-181.6" font-family="Arial" font-size="14.00" fill="#666666">[bigint]</text>
<polygon fill="none" stroke="black" points="46.2,-138.6 46.2,-169.4 334.17,-169.4 334.17,-138.6 46.2,-138.6"/>
<text text-anchor="start" x="53.2" y="-150.8" font-family="Arial" font-size="14.00">staff_id </text>
<text text-anchor="start" x="102.23" y="-150.8" font-family="Arial" font-size="14.00" fill="#666666">[bigint]</text>
<polygon fill="none" stroke="black" points="46.2,-107.8 46.2,-138.6 334.17,-138.6 334.17,-107.8 46.2,-107.8"/>
<text text-anchor="start" x="53.2" y="-120" font-family="Arial" font-size="14.00">session_data </text>
<text text-anchor="start" x="139.59" y="-120" font-family="Arial" font-size="14.00" fill="#666666">[text]</text>
<polygon fill="none" stroke="black" points="46.2,-77 46.2,-107.8 334.17,-107.8 334.17,-77 46.2,-77"/>
<text text-anchor="start" x="53.2" y="-89.2" font-family="Arial" font-size="14.00">expires_at </text>
<text text-anchor="start" x="121.68" y="-89.2" font-family="Arial" font-size="14.00" fill="#666666">[timestamp with time zone]</text>
<polygon fill="none" stroke="black" points="46.2,-46.2 46.2,-77 334.17,-77 334.17,-46.2 46.2,-46.2"/>
<text text-anchor="start" x="53.2" y="-58.4" font-family="Arial" font-size="14.00">created_at </text>
<text text-anchor="start" x="123.25" y="-58.4" font-family="Arial" font-size="14.00" fill="#666666">[timestamp with time zone]</text>
<polygon fill="none" stroke="black" stroke-width="3" points="44.7,-44.7 44.7,-237.3 335.67,-237.3 335.67,-44.7 44.7,-44.7"/>
</g>
</g>
</svg>
