<?xml version="1.0" encoding="UTF-8" standalone="no"?>
<!DOCTYPE svg PUBLIC "-//W3C//DTD SVG 1.1//EN"
 "http://www.w3.org/Graphics/SVG/1.1/DTD/svg11.dtd">
<!-- Generated by graphviz version 12.1.2 (20240928.0832)
 -->
<!-- Title: public.staffs Pages: 1 -->
<svg width="428pt" height="976pt"
 viewBox="0.00 0.00 427.54 975.60" xmlns="http://www.w3.org/2000/svg" xmlns:xlink="http://www.w3.org/1999/xlink">
<g id="graph0" class="graph" transform="scale(1 1) rotate(0) translate(4 971.6)">
<title>public.staffs</title>
<polygon fill="white" stroke="none" points="-4,4 -4,-971.6 423.54,-971.6 423.54,4 -4,4"/>
<!-- public.staffs -->
<g id="node1" class="node">
<title>public.staffs</title>
<polygon fill="#efefef" stroke="none" points="60.35,-573.8 60.35,-609.4 314.03,-609.4 314.03,-573.8 60.35,-573.8"/>
<polygon fill="none" stroke="black" points="60.35,-573.8 60.35,-609.4 314.03,-609.4 314.03,-573.8 60.35,-573.8"/>
<text text-anchor="start" x="80.7" y="-587.2" font-family="Arial Bold" font-size="18.00">public.staffs</text>
<text text-anchor="start" x="169.18" y="-587.2" font-family="Arial" font-size="14.00">    </text>
<text text-anchor="start" x="200.3" y="-587.2" font-family="Arial" font-size="14.00" fill="#666666">[BASE TABLE]</text>
<polygon fill="none" stroke="black" points="60.35,-543 60.35,-573.8 314.03,-573.8 314.03,-543 60.35,-543"/>
<text text-anchor="start" x="67.35" y="-555.2" font-family="Arial" font-size="14.00">staff_id </text>
<text text-anchor="start" x="116.37" y="-555.2" font-family="Arial" font-size="14.00" fill="#666666">[bigint]</text>
<polygon fill="none" stroke="black" points="60.35,-512.2 60.35,-543 314.03,-543 314.03,-512.2 60.35,-512.2"/>
<text text-anchor="start" x="67.35" y="-524.4" font-family="Arial" font-size="14.00">organization_id </text>
<text text-anchor="start" x="166.19" y="-524.4" font-family="Arial" font-size="14.00" fill="#666666">[bigint]</text>
<polygon fill="none" stroke="black" points="60.35,-481.4 60.35,-512.2 314.03,-512.2 314.03,-481.4 60.35,-481.4"/>
<text text-anchor="start" x="67.35" y="-493.6" font-family="Arial" font-size="14.00">email </text>
<text text-anchor="start" x="104.69" y="-493.6" font-family="Arial" font-size="14.00" fill="#666666">[varchar(255)]</text>
<polygon fill="none" stroke="black" points="60.35,-450.6 60.35,-481.4 314.03,-481.4 314.03,-450.6 60.35,-450.6"/>
<text text-anchor="start" x="67.35" y="-462.8" font-family="Arial" font-size="14.00">staff_name </text>
<text text-anchor="start" x="140.5" y="-462.8" font-family="Arial" font-size="14.00" fill="#666666">[varchar(255)]</text>
<polygon fill="none" stroke="black" points="60.35,-419.8 60.35,-450.6 314.03,-450.6 314.03,-419.8 60.35,-419.8"/>
<text text-anchor="start" x="67.35" y="-432" font-family="Arial" font-size="14.00">created_at </text>
<text text-anchor="start" x="137.39" y="-432" font-family="Arial" font-size="14.00" fill="#666666">[timestamp with time zone]</text>
<polygon fill="none" stroke="black" points="60.35,-389 60.35,-419.8 314.03,-419.8 314.03,-389 60.35,-389"/>
<text text-anchor="start" x="67.35" y="-401.2" font-family="Arial" font-size="14.00">updated_at </text>
<text text-anchor="start" x="141.3" y="-401.2" font-family="Arial" font-size="14.00" fill="#666666">[timestamp with time zone]</text>
<polygon fill="none" stroke="black" points="60.35,-358.2 60.35,-389 314.03,-389 314.03,-358.2 60.35,-358.2"/>
<text text-anchor="start" x="67.35" y="-370.4" font-family="Arial" font-size="14.00">deleted_at </text>
<text text-anchor="start" x="136.63" y="-370.4" font-family="Arial" font-size="14.00" fill="#666666">[timestamp with time zone]</text>
<polygon fill="none" stroke="black" stroke-width="3" points="58.85,-356.7 58.85,-610.9 315.53,-610.9 315.53,-356.7 58.85,-356.7"/>
</g>
<!-- public.organizations -->
<g id="node3" class="node">
<title>public.organizations</title>
<polygon fill="#efefef" stroke="none" points="44.71,-197.2 44.71,-232.8 329.66,-232.8 329.66,-197.2 44.71,-197.2"/>
<polygon fill="none" stroke="black" points="44.71,-197.2 44.71,-232.8 329.66,-232.8 329.66,-197.2 44.71,-197.2"/>
<text text-anchor="start" x="51.71" y="-210.6" font-family="Arial Bold" font-size="18.00">public.organizations</text>
<text text-anchor="start" x="198.17" y="-210.6" font-family="Arial" font-size="14.00">    </text>
<text text-anchor="start" x="229.29" y="-210.6" font-family="Arial" font-size="14.00" fill="#666666">[BASE TABLE]</text>
<polygon fill="none" stroke="black" points="44.71,-166.4 44.71,-197.2 329.66,-197.2 329.66,-166.4 44.71,-166.4"/>
<text text-anchor="start" x="51.71" y="-178.6" font-family="Arial" font-size="14.00">organization_id </text>
<text text-anchor="start" x="150.56" y="-178.6" font-family="Arial" font-size="14.00" fill="#666666">[bigint]</text>
<polygon fill="none" stroke="black" points="44.71,-135.6 44.71,-166.4 329.66,-166.4 329.66,-135.6 44.71,-135.6"/>
<text text-anchor="start" x="51.71" y="-147.8" font-family="Arial" font-size="14.00">organization_name </text>
<text text-anchor="start" x="174.68" y="-147.8" font-family="Arial" font-size="14.00" fill="#666666">[varchar(255)]</text>
<polygon fill="none" stroke="black" points="44.71,-104.8 44.71,-135.6 329.66,-135.6 329.66,-104.8 44.71,-104.8"/>
<text text-anchor="start" x="51.71" y="-117" font-family="Arial" font-size="14.00">created_at </text>
<text text-anchor="start" x="121.76" y="-117" font-family="Arial" font-size="14.00" fill="#666666">[timestamp with time zone]</text>
<polygon fill="none" stroke="black" points="44.71,-74 44.71,-104.8 329.66,-104.8 329.66,-74 44.71,-74"/>
<text text-anchor="start" x="51.71" y="-86.2" font-family="Arial" font-size="14.00">updated_at </text>
<text text-anchor="start" x="125.67" y="-86.2" font-family="Arial" font-size="14.00" fill="#666666">[timestamp with time zone]</text>
<polygon fill="none" stroke="black" points="44.71,-43.2 44.71,-74 329.66,-74 329.66,-43.2 44.71,-43.2"/>
<text text-anchor="start" x="51.71" y="-55.4" font-family="Arial" font-size="14.00">deleted_at </text>
<text text-anchor="start" x="120.99" y="-55.4" font-family="Arial" font-size="14.00" fill="#666666">[timestamp with time zone]</text>
</g>
<!-- public.staffs&#45;&gt;public.organizations -->
<g id="edge2" class="edge">
<title>public.staffs:organization_id&#45;&gt;public.organizations:organization_id</title>
<path fill="none" stroke="black" stroke-dasharray="5,2" d="M325.02,-525.57C393.17,-497.23 404.13,-181.8 330.66,-181.8"/>
<polygon fill="black" stroke="black" points="325.16,-525.54 314.46,-523.12 319.93,-526.6 315.68,-527.47 315.68,-527.47 315.68,-527.47 319.93,-526.6 316.25,-531.94 325.16,-525.54"/>
</g>
<!-- public.staff_sessions -->
<g id="node2" class="node">
<title>public.staff_sessions</title>
<polygon fill="#efefef" stroke="none" points="43.2,-888.8 43.2,-924.4 331.17,-924.4 331.17,-888.8 43.2,-888.8"/>
<polygon fill="none" stroke="black" points="43.2,-888.8 43.2,-924.4 331.17,-924.4 331.17,-888.8 43.2,-888.8"/>
<text text-anchor="start" x="50.2" y="-902.2" font-family="Arial Bold" font-size="18.00">public.staff_sessions</text>
<text text-anchor="start" x="199.68" y="-902.2" font-family="Arial" font-size="14.00">    </text>
<text text-anchor="start" x="230.8" y="-902.2" font-family="Arial" font-size="14.00" fill="#666666">[BASE TABLE]</text>
<polygon fill="none" stroke="black" points="43.2,-858 43.2,-888.8 331.17,-888.8 331.17,-858 43.2,-858"/>
<text text-anchor="start" x="50.2" y="-870.2" font-family="Arial" font-size="14.00">session_id </text>
<text text-anchor="start" x="120.24" y="-870.2" font-family="Arial" font-size="14.00" fill="#666666">[bigint]</text>
<polygon fill="none" stroke="black" points="43.2,-827.2 43.2,-858 331.17,-858 331.17,-827.2 43.2,-827.2"/>
<text text-anchor="start" x="50.2" y="-839.4" font-family="Arial" font-size="14.00">staff_id </text>
<text text-anchor="start" x="99.23" y="-839.4" font-family="Arial" font-size="14.00" fill="#666666">[bigint]</text>
<polygon fill="none" stroke="black" points="43.2,-796.4 43.2,-827.2 331.17,-827.2 331.17,-796.4 43.2,-796.4"/>
<text text-anchor="start" x="50.2" y="-808.6" font-family="Arial" font-size="14.00">session_data </text>
<text text-anchor="start" x="136.59" y="-808.6" font-family="Arial" font-size="14.00" fill="#666666">[text]</text>
<polygon fill="none" stroke="black" points="43.2,-765.6 43.2,-796.4 331.17,-796.4 331.17,-765.6 43.2,-765.6"/>
<text text-anchor="start" x="50.2" y="-777.8" font-family="Arial" font-size="14.00">expires_at </text>
<text text-anchor="start" x="118.68" y="-777.8" font-family="Arial" font-size="14.00" fill="#666666">[timestamp with time zone]</text>
<polygon fill="none" stroke="black" points="43.2,-734.8 43.2,-765.6 331.17,-765.6 331.17,-734.8 43.2,-734.8"/>
<text text-anchor="start" x="50.2" y="-747" font-family="Arial" font-size="14.00">created_at </text>
<text text-anchor="start" x="120.25" y="-747" font-family="Arial" font-size="14.00" fill="#666666">[timestamp with time zone]</text>
</g>
<!-- public.staff_sessions&#45;&gt;public.staffs -->
<g id="edge1" class="edge">
<title>public.staff_sessions:staff_id&#45;&gt;public.staffs:staff_id</title>
<path fill="none" stroke="black" stroke-dasharray="5,2" d="M342.58,-841.93C457.66,-826.73 437.98,-558.4 315.03,-558.4"/>
<polygon fill="black" stroke="black" points="342.49,-841.93 332.22,-838.09 337.16,-842.28 332.84,-842.56 332.84,-842.56 332.84,-842.56 337.16,-842.28 332.8,-847.07 342.49,-841.93"/>
</g>
</g>
</svg>
