<?xml version="1.0" encoding="UTF-8" standalone="no"?>
<!DOCTYPE svg PUBLIC "-//W3C//DTD SVG 1.1//EN"
 "http://www.w3.org/Graphics/SVG/1.1/DTD/svg11.dtd">
<!-- Generated by graphviz version 12.1.2 (20240928.0832)
 -->
<!-- Title: public.organizations Pages: 1 -->
<svg width="391pt" height="664pt"
 viewBox="0.00 0.00 390.95 663.60" xmlns="http://www.w3.org/2000/svg" xmlns:xlink="http://www.w3.org/1999/xlink">
<g id="graph0" class="graph" transform="scale(1 1) rotate(0) translate(4 659.6)">
<title>public.organizations</title>
<polygon fill="white" stroke="none" points="-4,4 -4,-659.6 386.95,-659.6 386.95,4 -4,4"/>
<!-- public.organizations -->
<g id="node1" class="node">
<title>public.organizations</title>
<polygon fill="#efefef" stroke="none" points="46.2,-200.2 46.2,-235.8 331.15,-235.8 331.15,-200.2 46.2,-200.2"/>
<polygon fill="none" stroke="black" points="46.2,-200.2 46.2,-235.8 331.15,-235.8 331.15,-200.2 46.2,-200.2"/>
<text text-anchor="start" x="53.2" y="-213.6" font-family="Arial Bold" font-size="18.00">public.organizations</text>
<text text-anchor="start" x="199.66" y="-213.6" font-family="Arial" font-size="14.00">    </text>
<text text-anchor="start" x="230.78" y="-213.6" font-family="Arial" font-size="14.00" fill="#666666">[BASE TABLE]</text>
<polygon fill="none" stroke="black" points="46.2,-169.4 46.2,-200.2 331.15,-200.2 331.15,-169.4 46.2,-169.4"/>
<text text-anchor="start" x="53.2" y="-181.6" font-family="Arial" font-size="14.00">organization_id </text>
<text text-anchor="start" x="152.05" y="-181.6" font-family="Arial" font-size="14.00" fill="#666666">[bigint]</text>
<polygon fill="none" stroke="black" points="46.2,-138.6 46.2,-169.4 331.15,-169.4 331.15,-138.6 46.2,-138.6"/>
<text text-anchor="start" x="53.2" y="-150.8" font-family="Arial" font-size="14.00">organization_name </text>
<text text-anchor="start" x="176.17" y="-150.8" font-family="Arial" font-size="14.00" fill="#666666">[varchar(255)]</text>
<polygon fill="none" stroke="black" points="46.2,-107.8 46.2,-138.6 331.15,-138.6 331.15,-107.8 46.2,-107.8"/>
<text text-anchor="start" x="53.2" y="-120" font-family="Arial" font-size="14.00">created_at </text>
<text text-anchor="start" x="123.25" y="-120" font-family="Arial" font-size="14.00" fill="#666666">[timestamp with time zone]</text>
<polygon fill="none" stroke="black" points="46.2,-77 46.2,-107.8 331.15,-107.8 331.15,-77 46.2,-77"/>
<text text-anchor="start" x="53.2" y="-89.2" font-family="Arial" font-size="14.00">updated_at </text>
<text text-anchor="start" x="127.16" y="-89.2" font-family="Arial" font-size="14.00" fill="#666666">[timestamp with time zone]</text>
<polygon fill="none" stroke="black" points="46.2,-46.2 46.2,-77 331.15,-77 331.15,-46.2 46.2,-46.2"/>
<text text-anchor="start" x="53.2" y="-58.4" font-family="Arial" font-size="14.00">deleted_at </text>
<text text-anchor="start" x="122.48" y="-58.4" font-family="Arial" font-size="14.00" fill="#666666">[timestamp with time zone]</text>
<polygon fill="none" stroke="black" stroke-width="3" points="44.7,-44.7 44.7,-237.3 332.65,-237.3 332.65,-44.7 44.7,-44.7"/>
</g>
<!-- public.staffs -->
<g id="node2" class="node">
<title>public.staffs</title>
<polygon fill="#efefef" stroke="none" points="61.83,-576.8 61.83,-612.4 315.52,-612.4 315.52,-576.8 61.83,-576.8"/>
<polygon fill="none" stroke="black" points="61.83,-576.8 61.83,-612.4 315.52,-612.4 315.52,-576.8 61.83,-576.8"/>
<text text-anchor="start" x="82.19" y="-590.2" font-family="Arial Bold" font-size="18.00">public.staffs</text>
<text text-anchor="start" x="170.67" y="-590.2" font-family="Arial" font-size="14.00">    </text>
<text text-anchor="start" x="201.79" y="-590.2" font-family="Arial" font-size="14.00" fill="#666666">[BASE TABLE]</text>
<polygon fill="none" stroke="black" points="61.83,-546 61.83,-576.8 315.52,-576.8 315.52,-546 61.83,-546"/>
<text text-anchor="start" x="68.83" y="-558.2" font-family="Arial" font-size="14.00">staff_id </text>
<text text-anchor="start" x="117.86" y="-558.2" font-family="Arial" font-size="14.00" fill="#666666">[bigint]</text>
<polygon fill="none" stroke="black" points="61.83,-515.2 61.83,-546 315.52,-546 315.52,-515.2 61.83,-515.2"/>
<text text-anchor="start" x="68.83" y="-527.4" font-family="Arial" font-size="14.00">organization_id </text>
<text text-anchor="start" x="167.68" y="-527.4" font-family="Arial" font-size="14.00" fill="#666666">[bigint]</text>
<polygon fill="none" stroke="black" points="61.83,-484.4 61.83,-515.2 315.52,-515.2 315.52,-484.4 61.83,-484.4"/>
<text text-anchor="start" x="68.83" y="-496.6" font-family="Arial" font-size="14.00">email </text>
<text text-anchor="start" x="106.18" y="-496.6" font-family="Arial" font-size="14.00" fill="#666666">[varchar(255)]</text>
<polygon fill="none" stroke="black" points="61.83,-453.6 61.83,-484.4 315.52,-484.4 315.52,-453.6 61.83,-453.6"/>
<text text-anchor="start" x="68.83" y="-465.8" font-family="Arial" font-size="14.00">staff_name </text>
<text text-anchor="start" x="141.99" y="-465.8" font-family="Arial" font-size="14.00" fill="#666666">[varchar(255)]</text>
<polygon fill="none" stroke="black" points="61.83,-422.8 61.83,-453.6 315.52,-453.6 315.52,-422.8 61.83,-422.8"/>
<text text-anchor="start" x="68.83" y="-435" font-family="Arial" font-size="14.00">created_at </text>
<text text-anchor="start" x="138.88" y="-435" font-family="Arial" font-size="14.00" fill="#666666">[timestamp with time zone]</text>
<polygon fill="none" stroke="black" points="61.83,-392 61.83,-422.8 315.52,-422.8 315.52,-392 61.83,-392"/>
<text text-anchor="start" x="68.83" y="-404.2" font-family="Arial" font-size="14.00">updated_at </text>
<text text-anchor="start" x="142.79" y="-404.2" font-family="Arial" font-size="14.00" fill="#666666">[timestamp with time zone]</text>
<polygon fill="none" stroke="black" points="61.83,-361.2 61.83,-392 315.52,-392 315.52,-361.2 61.83,-361.2"/>
<text text-anchor="start" x="68.83" y="-373.4" font-family="Arial" font-size="14.00">deleted_at </text>
<text text-anchor="start" x="138.12" y="-373.4" font-family="Arial" font-size="14.00" fill="#666666">[timestamp with time zone]</text>
</g>
<!-- public.staffs&#45;&gt;public.organizations -->
<g id="edge1" class="edge">
<title>public.staffs:organization_id&#45;&gt;public.organizations:organization_id</title>
<path fill="none" stroke="black" stroke-dasharray="5,2" d="M326.51,-528.57C394.66,-500.23 405.62,-184.8 332.15,-184.8"/>
<polygon fill="black" stroke="black" points="326.64,-528.54 315.95,-526.12 321.42,-529.6 317.17,-530.47 317.17,-530.47 317.17,-530.47 321.42,-529.6 317.74,-534.94 326.64,-528.54"/>
</g>
</g>
</svg>
