<?xml version="1.0" encoding="UTF-8" standalone="no"?>
<!DOCTYPE svg PUBLIC "-//W3C//DTD SVG 1.1//EN"
 "http://www.w3.org/Graphics/SVG/1.1/DTD/svg11.dtd">
<!-- Generated by graphviz version 12.1.2 (20240928.0832)
 -->
<!-- Title: project_db Pages: 1 -->
<svg width="3798pt" height="376pt"
 viewBox="0.00 0.00 3797.85 376.40" xmlns="http://www.w3.org/2000/svg" xmlns:xlink="http://www.w3.org/1999/xlink">
<g id="graph0" class="graph" transform="scale(1 1) rotate(0) translate(4 372.4)">
<title>project_db</title>
<polygon fill="white" stroke="none" points="-4,4 -4,-372.4 3793.85,-372.4 3793.85,4 -4,4"/>
<!-- public.organizations -->
<g id="node1" class="node">
<title>public.organizations</title>
<polygon fill="#efefef" stroke="none" points="43.2,-243.4 43.2,-279 328.15,-279 328.15,-243.4 43.2,-243.4"/>
<polygon fill="none" stroke="black" points="43.2,-243.4 43.2,-279 328.15,-279 328.15,-243.4 43.2,-243.4"/>
<text text-anchor="start" x="50.2" y="-256.8" font-family="Arial Bold" font-size="18.00">public.organizations</text>
<text text-anchor="start" x="196.66" y="-256.8" font-family="Arial" font-size="14.00">    </text>
<text text-anchor="start" x="227.78" y="-256.8" font-family="Arial" font-size="14.00" fill="#666666">[BASE TABLE]</text>
<polygon fill="none" stroke="black" points="43.2,-212.6 43.2,-243.4 328.15,-243.4 328.15,-212.6 43.2,-212.6"/>
<text text-anchor="start" x="50.2" y="-224.8" font-family="Arial" font-size="14.00">organization_id </text>
<text text-anchor="start" x="149.05" y="-224.8" font-family="Arial" font-size="14.00" fill="#666666">[bigint]</text>
<polygon fill="none" stroke="black" points="43.2,-181.8 43.2,-212.6 328.15,-212.6 328.15,-181.8 43.2,-181.8"/>
<text text-anchor="start" x="50.2" y="-194" font-family="Arial" font-size="14.00">organization_name </text>
<text text-anchor="start" x="173.17" y="-194" font-family="Arial" font-size="14.00" fill="#666666">[varchar(255)]</text>
<polygon fill="none" stroke="black" points="43.2,-151 43.2,-181.8 328.15,-181.8 328.15,-151 43.2,-151"/>
<text text-anchor="start" x="50.2" y="-163.2" font-family="Arial" font-size="14.00">created_at </text>
<text text-anchor="start" x="120.25" y="-163.2" font-family="Arial" font-size="14.00" fill="#666666">[timestamp with time zone]</text>
<polygon fill="none" stroke="black" points="43.2,-120.2 43.2,-151 328.15,-151 328.15,-120.2 43.2,-120.2"/>
<text text-anchor="start" x="50.2" y="-132.4" font-family="Arial" font-size="14.00">updated_at </text>
<text text-anchor="start" x="124.16" y="-132.4" font-family="Arial" font-size="14.00" fill="#666666">[timestamp with time zone]</text>
<polygon fill="none" stroke="black" points="43.2,-89.4 43.2,-120.2 328.15,-120.2 328.15,-89.4 43.2,-89.4"/>
<text text-anchor="start" x="50.2" y="-101.6" font-family="Arial" font-size="14.00">deleted_at </text>
<text text-anchor="start" x="119.48" y="-101.6" font-family="Arial" font-size="14.00" fill="#666666">[timestamp with time zone]</text>
</g>
<!-- public.staffs -->
<g id="node2" class="node">
<title>public.staffs</title>
<polygon fill="#efefef" stroke="none" points="432.83,-274.2 432.83,-309.8 686.52,-309.8 686.52,-274.2 432.83,-274.2"/>
<polygon fill="none" stroke="black" points="432.83,-274.2 432.83,-309.8 686.52,-309.8 686.52,-274.2 432.83,-274.2"/>
<text text-anchor="start" x="453.19" y="-287.6" font-family="Arial Bold" font-size="18.00">public.staffs</text>
<text text-anchor="start" x="541.67" y="-287.6" font-family="Arial" font-size="14.00">    </text>
<text text-anchor="start" x="572.79" y="-287.6" font-family="Arial" font-size="14.00" fill="#666666">[BASE TABLE]</text>
<polygon fill="none" stroke="black" points="432.83,-243.4 432.83,-274.2 686.52,-274.2 686.52,-243.4 432.83,-243.4"/>
<text text-anchor="start" x="439.83" y="-255.6" font-family="Arial" font-size="14.00">staff_id </text>
<text text-anchor="start" x="488.86" y="-255.6" font-family="Arial" font-size="14.00" fill="#666666">[bigint]</text>
<polygon fill="none" stroke="black" points="432.83,-212.6 432.83,-243.4 686.52,-243.4 686.52,-212.6 432.83,-212.6"/>
<text text-anchor="start" x="439.83" y="-224.8" font-family="Arial" font-size="14.00">organization_id </text>
<text text-anchor="start" x="538.68" y="-224.8" font-family="Arial" font-size="14.00" fill="#666666">[bigint]</text>
<polygon fill="none" stroke="black" points="432.83,-181.8 432.83,-212.6 686.52,-212.6 686.52,-181.8 432.83,-181.8"/>
<text text-anchor="start" x="439.83" y="-194" font-family="Arial" font-size="14.00">email </text>
<text text-anchor="start" x="477.18" y="-194" font-family="Arial" font-size="14.00" fill="#666666">[varchar(255)]</text>
<polygon fill="none" stroke="black" points="432.83,-151 432.83,-181.8 686.52,-181.8 686.52,-151 432.83,-151"/>
<text text-anchor="start" x="439.83" y="-163.2" font-family="Arial" font-size="14.00">staff_name </text>
<text text-anchor="start" x="512.99" y="-163.2" font-family="Arial" font-size="14.00" fill="#666666">[varchar(255)]</text>
<polygon fill="none" stroke="black" points="432.83,-120.2 432.83,-151 686.52,-151 686.52,-120.2 432.83,-120.2"/>
<text text-anchor="start" x="439.83" y="-132.4" font-family="Arial" font-size="14.00">created_at </text>
<text text-anchor="start" x="509.88" y="-132.4" font-family="Arial" font-size="14.00" fill="#666666">[timestamp with time zone]</text>
<polygon fill="none" stroke="black" points="432.83,-89.4 432.83,-120.2 686.52,-120.2 686.52,-89.4 432.83,-89.4"/>
<text text-anchor="start" x="439.83" y="-101.6" font-family="Arial" font-size="14.00">updated_at </text>
<text text-anchor="start" x="513.79" y="-101.6" font-family="Arial" font-size="14.00" fill="#666666">[timestamp with time zone]</text>
<polygon fill="none" stroke="black" points="432.83,-58.6 432.83,-89.4 686.52,-89.4 686.52,-58.6 432.83,-58.6"/>
<text text-anchor="start" x="439.83" y="-70.8" font-family="Arial" font-size="14.00">deleted_at </text>
<text text-anchor="start" x="509.12" y="-70.8" font-family="Arial" font-size="14.00" fill="#666666">[timestamp with time zone]</text>
</g>
<!-- public.staff_sessions -->
<g id="node3" class="node">
<title>public.staff_sessions</title>
<polygon fill="#efefef" stroke="none" points="790.69,-243.4 790.69,-279 1078.66,-279 1078.66,-243.4 790.69,-243.4"/>
<polygon fill="none" stroke="black" points="790.69,-243.4 790.69,-279 1078.66,-279 1078.66,-243.4 790.69,-243.4"/>
<text text-anchor="start" x="797.69" y="-256.8" font-family="Arial Bold" font-size="18.00">public.staff_sessions</text>
<text text-anchor="start" x="947.17" y="-256.8" font-family="Arial" font-size="14.00">    </text>
<text text-anchor="start" x="978.29" y="-256.8" font-family="Arial" font-size="14.00" fill="#666666">[BASE TABLE]</text>
<polygon fill="none" stroke="black" points="790.69,-212.6 790.69,-243.4 1078.66,-243.4 1078.66,-212.6 790.69,-212.6"/>
<text text-anchor="start" x="797.69" y="-224.8" font-family="Arial" font-size="14.00">session_id </text>
<text text-anchor="start" x="867.73" y="-224.8" font-family="Arial" font-size="14.00" fill="#666666">[bigint]</text>
<polygon fill="none" stroke="black" points="790.69,-181.8 790.69,-212.6 1078.66,-212.6 1078.66,-181.8 790.69,-181.8"/>
<text text-anchor="start" x="797.69" y="-194" font-family="Arial" font-size="14.00">staff_id </text>
<text text-anchor="start" x="846.72" y="-194" font-family="Arial" font-size="14.00" fill="#666666">[bigint]</text>
<polygon fill="none" stroke="black" points="790.69,-151 790.69,-181.8 1078.66,-181.8 1078.66,-151 790.69,-151"/>
<text text-anchor="start" x="797.69" y="-163.2" font-family="Arial" font-size="14.00">session_data </text>
<text text-anchor="start" x="884.08" y="-163.2" font-family="Arial" font-size="14.00" fill="#666666">[text]</text>
<polygon fill="none" stroke="black" points="790.69,-120.2 790.69,-151 1078.66,-151 1078.66,-120.2 790.69,-120.2"/>
<text text-anchor="start" x="797.69" y="-132.4" font-family="Arial" font-size="14.00">expires_at </text>
<text text-anchor="start" x="866.17" y="-132.4" font-family="Arial" font-size="14.00" fill="#666666">[timestamp with time zone]</text>
<polygon fill="none" stroke="black" points="790.69,-89.4 790.69,-120.2 1078.66,-120.2 1078.66,-89.4 790.69,-89.4"/>
<text text-anchor="start" x="797.69" y="-101.6" font-family="Arial" font-size="14.00">created_at </text>
<text text-anchor="start" x="867.74" y="-101.6" font-family="Arial" font-size="14.00" fill="#666666">[timestamp with time zone]</text>
</g>
<!-- public.projects -->
<g id="node4" class="node">
<title>public.projects</title>
<polygon fill="#efefef" stroke="none" points="1182.83,-274.2 1182.83,-309.8 1436.52,-309.8 1436.52,-274.2 1182.83,-274.2"/>
<polygon fill="none" stroke="black" points="1182.83,-274.2 1182.83,-309.8 1436.52,-309.8 1436.52,-274.2 1182.83,-274.2"/>
<text text-anchor="start" x="1194.2" y="-287.6" font-family="Arial Bold" font-size="18.00">public.projects</text>
<text text-anchor="start" x="1300.67" y="-287.6" font-family="Arial" font-size="14.00">    </text>
<text text-anchor="start" x="1331.78" y="-287.6" font-family="Arial" font-size="14.00" fill="#666666">[BASE TABLE]</text>
<polygon fill="none" stroke="black" points="1182.83,-243.4 1182.83,-274.2 1436.52,-274.2 1436.52,-243.4 1182.83,-243.4"/>
<text text-anchor="start" x="1189.83" y="-255.6" font-family="Arial" font-size="14.00">project_id </text>
<text text-anchor="start" x="1254.43" y="-255.6" font-family="Arial" font-size="14.00" fill="#666666">[bigint]</text>
<polygon fill="none" stroke="black" points="1182.83,-212.6 1182.83,-243.4 1436.52,-243.4 1436.52,-212.6 1182.83,-212.6"/>
<text text-anchor="start" x="1189.83" y="-224.8" font-family="Arial" font-size="14.00">organization_id </text>
<text text-anchor="start" x="1288.68" y="-224.8" font-family="Arial" font-size="14.00" fill="#666666">[bigint]</text>
<polygon fill="none" stroke="black" points="1182.83,-181.8 1182.83,-212.6 1436.52,-212.6 1436.52,-181.8 1182.83,-181.8"/>
<text text-anchor="start" x="1189.83" y="-194" font-family="Arial" font-size="14.00">project_name </text>
<text text-anchor="start" x="1278.55" y="-194" font-family="Arial" font-size="14.00" fill="#666666">[varchar(255)]</text>
<polygon fill="none" stroke="black" points="1182.83,-151 1182.83,-181.8 1436.52,-181.8 1436.52,-151 1182.83,-151"/>
<text text-anchor="start" x="1189.83" y="-163.2" font-family="Arial" font-size="14.00">description </text>
<text text-anchor="start" x="1261.43" y="-163.2" font-family="Arial" font-size="14.00" fill="#666666">[text]</text>
<polygon fill="none" stroke="black" points="1182.83,-120.2 1182.83,-151 1436.52,-151 1436.52,-120.2 1182.83,-120.2"/>
<text text-anchor="start" x="1189.83" y="-132.4" font-family="Arial" font-size="14.00">created_at </text>
<text text-anchor="start" x="1259.88" y="-132.4" font-family="Arial" font-size="14.00" fill="#666666">[timestamp with time zone]</text>
<polygon fill="none" stroke="black" points="1182.83,-89.4 1182.83,-120.2 1436.52,-120.2 1436.52,-89.4 1182.83,-89.4"/>
<text text-anchor="start" x="1189.83" y="-101.6" font-family="Arial" font-size="14.00">updated_at </text>
<text text-anchor="start" x="1263.79" y="-101.6" font-family="Arial" font-size="14.00" fill="#666666">[timestamp with time zone]</text>
<polygon fill="none" stroke="black" points="1182.83,-58.6 1182.83,-89.4 1436.52,-89.4 1436.52,-58.6 1182.83,-58.6"/>
<text text-anchor="start" x="1189.83" y="-70.8" font-family="Arial" font-size="14.00">deleted_at </text>
<text text-anchor="start" x="1259.12" y="-70.8" font-family="Arial" font-size="14.00" fill="#666666">[timestamp with time zone]</text>
</g>
<!-- public.tasks -->
<g id="node5" class="node">
<title>public.tasks</title>
<polygon fill="#efefef" stroke="none" points="1540.83,-289.6 1540.83,-325.2 1794.52,-325.2 1794.52,-289.6 1540.83,-289.6"/>
<polygon fill="none" stroke="black" points="1540.83,-289.6 1540.83,-325.2 1794.52,-325.2 1794.52,-289.6 1540.83,-289.6"/>
<text text-anchor="start" x="1562.68" y="-303" font-family="Arial Bold" font-size="18.00">public.tasks</text>
<text text-anchor="start" x="1648.18" y="-303" font-family="Arial" font-size="14.00">    </text>
<text text-anchor="start" x="1679.29" y="-303" font-family="Arial" font-size="14.00" fill="#666666">[BASE TABLE]</text>
<polygon fill="none" stroke="black" points="1540.83,-258.8 1540.83,-289.6 1794.52,-289.6 1794.52,-258.8 1540.83,-258.8"/>
<text text-anchor="start" x="1547.83" y="-271" font-family="Arial" font-size="14.00">task_id </text>
<text text-anchor="start" x="1596.08" y="-271" font-family="Arial" font-size="14.00" fill="#666666">[bigint]</text>
<polygon fill="none" stroke="black" points="1540.83,-228 1540.83,-258.8 1794.52,-258.8 1794.52,-228 1540.83,-228"/>
<text text-anchor="start" x="1547.83" y="-240.2" font-family="Arial" font-size="14.00">project_id </text>
<text text-anchor="start" x="1612.43" y="-240.2" font-family="Arial" font-size="14.00" fill="#666666">[bigint]</text>
<polygon fill="none" stroke="black" points="1540.83,-197.2 1540.83,-228 1794.52,-228 1794.52,-197.2 1540.83,-197.2"/>
<text text-anchor="start" x="1547.83" y="-209.4" font-family="Arial" font-size="14.00">title </text>
<text text-anchor="start" x="1573.51" y="-209.4" font-family="Arial" font-size="14.00" fill="#666666">[varchar(255)]</text>
<polygon fill="none" stroke="black" points="1540.83,-166.4 1540.83,-197.2 1794.52,-197.2 1794.52,-166.4 1540.83,-166.4"/>
<text text-anchor="start" x="1547.83" y="-178.6" font-family="Arial" font-size="14.00">description </text>
<text text-anchor="start" x="1619.43" y="-178.6" font-family="Arial" font-size="14.00" fill="#666666">[text]</text>
<polygon fill="none" stroke="black" points="1540.83,-135.6 1540.83,-166.4 1794.52,-166.4 1794.52,-135.6 1540.83,-135.6"/>
<text text-anchor="start" x="1547.83" y="-147.8" font-family="Arial" font-size="14.00">status </text>
<text text-anchor="start" x="1589.08" y="-147.8" font-family="Arial" font-size="14.00" fill="#666666">[varchar(255)]</text>
<polygon fill="none" stroke="black" points="1540.83,-104.8 1540.83,-135.6 1794.52,-135.6 1794.52,-104.8 1540.83,-104.8"/>
<text text-anchor="start" x="1547.83" y="-117" font-family="Arial" font-size="14.00">created_at </text>
<text text-anchor="start" x="1617.88" y="-117" font-family="Arial" font-size="14.00" fill="#666666">[timestamp with time zone]</text>
<polygon fill="none" stroke="black" points="1540.83,-74 1540.83,-104.8 1794.52,-104.8 1794.52,-74 1540.83,-74"/>
<text text-anchor="start" x="1547.83" y="-86.2" font-family="Arial" font-size="14.00">updated_at </text>
<text text-anchor="start" x="1621.79" y="-86.2" font-family="Arial" font-size="14.00" fill="#666666">[timestamp with time zone]</text>
<polygon fill="none" stroke="black" points="1540.83,-43.2 1540.83,-74 1794.52,-74 1794.52,-43.2 1540.83,-43.2"/>
<text text-anchor="start" x="1547.83" y="-55.4" font-family="Arial" font-size="14.00">deleted_at </text>
<text text-anchor="start" x="1617.12" y="-55.4" font-family="Arial" font-size="14.00" fill="#666666">[timestamp with time zone]</text>
</g>
<!-- public.roles -->
<g id="node6" class="node">
<title>public.roles</title>
<polygon fill="#efefef" stroke="none" points="1898.83,-243.4 1898.83,-279 2152.52,-279 2152.52,-243.4 1898.83,-243.4"/>
<polygon fill="none" stroke="black" points="1898.83,-243.4 1898.83,-279 2152.52,-279 2152.52,-243.4 1898.83,-243.4"/>
<text text-anchor="start" x="1921.19" y="-256.8" font-family="Arial Bold" font-size="18.00">public.roles</text>
<text text-anchor="start" x="2005.67" y="-256.8" font-family="Arial" font-size="14.00">    </text>
<text text-anchor="start" x="2036.79" y="-256.8" font-family="Arial" font-size="14.00" fill="#666666">[BASE TABLE]</text>
<polygon fill="none" stroke="black" points="1898.83,-212.6 1898.83,-243.4 2152.52,-243.4 2152.52,-212.6 1898.83,-212.6"/>
<text text-anchor="start" x="1905.83" y="-224.8" font-family="Arial" font-size="14.00">role_id </text>
<text text-anchor="start" x="1951.75" y="-224.8" font-family="Arial" font-size="14.00" fill="#666666">[bigint]</text>
<polygon fill="none" stroke="black" points="1898.83,-181.8 1898.83,-212.6 2152.52,-212.6 2152.52,-181.8 1898.83,-181.8"/>
<text text-anchor="start" x="1905.83" y="-194" font-family="Arial" font-size="14.00">role_name </text>
<text text-anchor="start" x="1975.88" y="-194" font-family="Arial" font-size="14.00" fill="#666666">[varchar(255)]</text>
<polygon fill="none" stroke="black" points="1898.83,-151 1898.83,-181.8 2152.52,-181.8 2152.52,-151 1898.83,-151"/>
<text text-anchor="start" x="1905.83" y="-163.2" font-family="Arial" font-size="14.00">created_at </text>
<text text-anchor="start" x="1975.88" y="-163.2" font-family="Arial" font-size="14.00" fill="#666666">[timestamp with time zone]</text>
<polygon fill="none" stroke="black" points="1898.83,-120.2 1898.83,-151 2152.52,-151 2152.52,-120.2 1898.83,-120.2"/>
<text text-anchor="start" x="1905.83" y="-132.4" font-family="Arial" font-size="14.00">updated_at </text>
<text text-anchor="start" x="1979.79" y="-132.4" font-family="Arial" font-size="14.00" fill="#666666">[timestamp with time zone]</text>
<polygon fill="none" stroke="black" points="1898.83,-89.4 1898.83,-120.2 2152.52,-120.2 2152.52,-89.4 1898.83,-89.4"/>
<text text-anchor="start" x="1905.83" y="-101.6" font-family="Arial" font-size="14.00">deleted_at </text>
<text text-anchor="start" x="1975.12" y="-101.6" font-family="Arial" font-size="14.00" fill="#666666">[timestamp with time zone]</text>
</g>
<!-- public.features -->
<g id="node7" class="node">
<title>public.features</title>
<polygon fill="#efefef" stroke="none" points="2256.83,-274.2 2256.83,-309.8 2510.52,-309.8 2510.52,-274.2 2256.83,-274.2"/>
<polygon fill="none" stroke="black" points="2256.83,-274.2 2256.83,-309.8 2510.52,-309.8 2510.52,-274.2 2256.83,-274.2"/>
<text text-anchor="start" x="2268.2" y="-287.6" font-family="Arial Bold" font-size="18.00">public.features</text>
<text text-anchor="start" x="2374.66" y="-287.6" font-family="Arial" font-size="14.00">    </text>
<text text-anchor="start" x="2405.77" y="-287.6" font-family="Arial" font-size="14.00" fill="#666666">[BASE TABLE]</text>
<polygon fill="none" stroke="black" points="2256.83,-243.4 2256.83,-274.2 2510.52,-274.2 2510.52,-243.4 2256.83,-243.4"/>
<text text-anchor="start" x="2263.83" y="-255.6" font-family="Arial" font-size="14.00">feature_id </text>
<text text-anchor="start" x="2329.99" y="-255.6" font-family="Arial" font-size="14.00" fill="#666666">[bigint]</text>
<polygon fill="none" stroke="black" points="2256.83,-212.6 2256.83,-243.4 2510.52,-243.4 2510.52,-212.6 2256.83,-212.6"/>
<text text-anchor="start" x="2263.83" y="-224.8" font-family="Arial" font-size="14.00">feature_name </text>
<text text-anchor="start" x="2354.12" y="-224.8" font-family="Arial" font-size="14.00" fill="#666666">[varchar(255)]</text>
<polygon fill="none" stroke="black" points="2256.83,-181.8 2256.83,-212.6 2510.52,-212.6 2510.52,-181.8 2256.83,-181.8"/>
<text text-anchor="start" x="2263.83" y="-194" font-family="Arial" font-size="14.00">operation </text>
<text text-anchor="start" x="2326.1" y="-194" font-family="Arial" font-size="14.00" fill="#666666">[varchar(255)]</text>
<polygon fill="none" stroke="black" points="2256.83,-151 2256.83,-181.8 2510.52,-181.8 2510.52,-151 2256.83,-151"/>
<text text-anchor="start" x="2263.83" y="-163.2" font-family="Arial" font-size="14.00">description </text>
<text text-anchor="start" x="2335.43" y="-163.2" font-family="Arial" font-size="14.00" fill="#666666">[text]</text>
<polygon fill="none" stroke="black" points="2256.83,-120.2 2256.83,-151 2510.52,-151 2510.52,-120.2 2256.83,-120.2"/>
<text text-anchor="start" x="2263.83" y="-132.4" font-family="Arial" font-size="14.00">created_at </text>
<text text-anchor="start" x="2333.88" y="-132.4" font-family="Arial" font-size="14.00" fill="#666666">[timestamp with time zone]</text>
<polygon fill="none" stroke="black" points="2256.83,-89.4 2256.83,-120.2 2510.52,-120.2 2510.52,-89.4 2256.83,-89.4"/>
<text text-anchor="start" x="2263.83" y="-101.6" font-family="Arial" font-size="14.00">updated_at </text>
<text text-anchor="start" x="2337.79" y="-101.6" font-family="Arial" font-size="14.00" fill="#666666">[timestamp with time zone]</text>
<polygon fill="none" stroke="black" points="2256.83,-58.6 2256.83,-89.4 2510.52,-89.4 2510.52,-58.6 2256.83,-58.6"/>
<text text-anchor="start" x="2263.83" y="-70.8" font-family="Arial" font-size="14.00">deleted_at </text>
<text text-anchor="start" x="2333.12" y="-70.8" font-family="Arial" font-size="14.00" fill="#666666">[timestamp with time zone]</text>
</g>
<!-- public.role_features -->
<g id="node8" class="node">
<title>public.role_features</title>
<polygon fill="#efefef" stroke="none" points="2614.71,-212.6 2614.71,-248.2 2896.64,-248.2 2896.64,-212.6 2614.71,-212.6"/>
<polygon fill="none" stroke="black" points="2614.71,-212.6 2614.71,-248.2 2896.64,-248.2 2896.64,-212.6 2614.71,-212.6"/>
<text text-anchor="start" x="2621.71" y="-226" font-family="Arial Bold" font-size="18.00">public.role_features</text>
<text text-anchor="start" x="2765.15" y="-226" font-family="Arial" font-size="14.00">    </text>
<text text-anchor="start" x="2796.27" y="-226" font-family="Arial" font-size="14.00" fill="#666666">[BASE TABLE]</text>
<polygon fill="none" stroke="black" points="2614.71,-181.8 2614.71,-212.6 2896.64,-212.6 2896.64,-181.8 2614.71,-181.8"/>
<text text-anchor="start" x="2621.71" y="-194" font-family="Arial" font-size="14.00">role_id </text>
<text text-anchor="start" x="2667.63" y="-194" font-family="Arial" font-size="14.00" fill="#666666">[bigint]</text>
<polygon fill="none" stroke="black" points="2614.71,-151 2614.71,-181.8 2896.64,-181.8 2896.64,-151 2614.71,-151"/>
<text text-anchor="start" x="2621.71" y="-163.2" font-family="Arial" font-size="14.00">feature_id </text>
<text text-anchor="start" x="2687.87" y="-163.2" font-family="Arial" font-size="14.00" fill="#666666">[bigint]</text>
<polygon fill="none" stroke="black" points="2614.71,-120.2 2614.71,-151 2896.64,-151 2896.64,-120.2 2614.71,-120.2"/>
<text text-anchor="start" x="2621.71" y="-132.4" font-family="Arial" font-size="14.00">created_at </text>
<text text-anchor="start" x="2691.76" y="-132.4" font-family="Arial" font-size="14.00" fill="#666666">[timestamp with time zone]</text>
</g>
<!-- public.project_members -->
<g id="node9" class="node">
<title>public.project_members</title>
<polygon fill="#efefef" stroke="none" points="3001.21,-274.2 3001.21,-309.8 3314.14,-309.8 3314.14,-274.2 3001.21,-274.2"/>
<polygon fill="none" stroke="black" points="3001.21,-274.2 3001.21,-309.8 3314.14,-309.8 3314.14,-274.2 3001.21,-274.2"/>
<text text-anchor="start" x="3008.21" y="-287.6" font-family="Arial Bold" font-size="18.00">public.project_members</text>
<text text-anchor="start" x="3182.65" y="-287.6" font-family="Arial" font-size="14.00">    </text>
<text text-anchor="start" x="3213.77" y="-287.6" font-family="Arial" font-size="14.00" fill="#666666">[BASE TABLE]</text>
<polygon fill="none" stroke="black" points="3001.21,-243.4 3001.21,-274.2 3314.14,-274.2 3314.14,-243.4 3001.21,-243.4"/>
<text text-anchor="start" x="3008.21" y="-255.6" font-family="Arial" font-size="14.00">project_member_id </text>
<text text-anchor="start" x="3131.93" y="-255.6" font-family="Arial" font-size="14.00" fill="#666666">[bigint]</text>
<polygon fill="none" stroke="black" points="3001.21,-212.6 3001.21,-243.4 3314.14,-243.4 3314.14,-212.6 3001.21,-212.6"/>
<text text-anchor="start" x="3008.21" y="-224.8" font-family="Arial" font-size="14.00">project_id </text>
<text text-anchor="start" x="3072.8" y="-224.8" font-family="Arial" font-size="14.00" fill="#666666">[bigint]</text>
<polygon fill="none" stroke="black" points="3001.21,-181.8 3001.21,-212.6 3314.14,-212.6 3314.14,-181.8 3001.21,-181.8"/>
<text text-anchor="start" x="3008.21" y="-194" font-family="Arial" font-size="14.00">staff_id </text>
<text text-anchor="start" x="3057.24" y="-194" font-family="Arial" font-size="14.00" fill="#666666">[bigint]</text>
<polygon fill="none" stroke="black" points="3001.21,-151 3001.21,-181.8 3314.14,-181.8 3314.14,-151 3001.21,-151"/>
<text text-anchor="start" x="3008.21" y="-163.2" font-family="Arial" font-size="14.00">role_id </text>
<text text-anchor="start" x="3054.12" y="-163.2" font-family="Arial" font-size="14.00" fill="#666666">[bigint]</text>
<polygon fill="none" stroke="black" points="3001.21,-120.2 3001.21,-151 3314.14,-151 3314.14,-120.2 3001.21,-120.2"/>
<text text-anchor="start" x="3008.21" y="-132.4" font-family="Arial" font-size="14.00">created_at </text>
<text text-anchor="start" x="3078.26" y="-132.4" font-family="Arial" font-size="14.00" fill="#666666">[timestamp with time zone]</text>
<polygon fill="none" stroke="black" points="3001.21,-89.4 3001.21,-120.2 3314.14,-120.2 3314.14,-89.4 3001.21,-89.4"/>
<text text-anchor="start" x="3008.21" y="-101.6" font-family="Arial" font-size="14.00">updated_at </text>
<text text-anchor="start" x="3082.17" y="-101.6" font-family="Arial" font-size="14.00" fill="#666666">[timestamp with time zone]</text>
<polygon fill="none" stroke="black" points="3001.21,-58.6 3001.21,-89.4 3314.14,-89.4 3314.14,-58.6 3001.21,-58.6"/>
<text text-anchor="start" x="3008.21" y="-70.8" font-family="Arial" font-size="14.00">deleted_at </text>
<text text-anchor="start" x="3077.49" y="-70.8" font-family="Arial" font-size="14.00" fill="#666666">[timestamp with time zone]</text>
</g>
<!-- public.schema_migrations -->
<g id="node10" class="node">
<title>public.schema_migrations</title>
<polygon fill="#efefef" stroke="none" points="3418.7,-197.2 3418.7,-232.8 3746.65,-232.8 3746.65,-197.2 3418.7,-197.2"/>
<polygon fill="none" stroke="black" points="3418.7,-197.2 3418.7,-232.8 3746.65,-232.8 3746.65,-197.2 3418.7,-197.2"/>
<text text-anchor="start" x="3425.7" y="-210.6" font-family="Arial Bold" font-size="18.00">public.schema_migrations</text>
<text text-anchor="start" x="3615.16" y="-210.6" font-family="Arial" font-size="14.00">    </text>
<text text-anchor="start" x="3646.28" y="-210.6" font-family="Arial" font-size="14.00" fill="#666666">[BASE TABLE]</text>
<polygon fill="none" stroke="black" points="3418.7,-166.4 3418.7,-197.2 3746.65,-197.2 3746.65,-166.4 3418.7,-166.4"/>
<text text-anchor="start" x="3425.7" y="-178.6" font-family="Arial" font-size="14.00">version </text>
<text text-anchor="start" x="3474.72" y="-178.6" font-family="Arial" font-size="14.00" fill="#666666">[bigint]</text>
<polygon fill="none" stroke="black" points="3418.7,-135.6 3418.7,-166.4 3746.65,-166.4 3746.65,-135.6 3418.7,-135.6"/>
<text text-anchor="start" x="3425.7" y="-147.8" font-family="Arial" font-size="14.00">dirty </text>
<text text-anchor="start" x="3456.04" y="-147.8" font-family="Arial" font-size="14.00" fill="#666666">[boolean]</text>
</g>
</g>
</svg>
