<?xml version="1.0" encoding="UTF-8" standalone="no"?>
<!DOCTYPE svg PUBLIC "-//W3C//DTD SVG 1.1//EN"
 "http://www.w3.org/Graphics/SVG/1.1/DTD/svg11.dtd">
<!-- Generated by graphviz version 12.1.2 (20240928.0832)
 -->
<!-- Title: project_db Pages: 1 -->
<svg width="3050pt" height="1062pt"
 viewBox="0.00 0.00 3050.36 1062.00" xmlns="http://www.w3.org/2000/svg" xmlns:xlink="http://www.w3.org/1999/xlink">
<g id="graph0" class="graph" transform="scale(1 1) rotate(0) translate(4 1058)">
<title>project_db</title>
<polygon fill="white" stroke="none" points="-4,4 -4,-1058 3046.36,-1058 3046.36,4 -4,4"/>
<!-- public.organizations -->
<g id="node1" class="node">
<title>public.organizations</title>
<polygon fill="#efefef" stroke="none" points="44.71,-197.2 44.71,-232.8 329.66,-232.8 329.66,-197.2 44.71,-197.2"/>
<polygon fill="none" stroke="black" points="44.71,-197.2 44.71,-232.8 329.66,-232.8 329.66,-197.2 44.71,-197.2"/>
<text text-anchor="start" x="51.71" y="-210.6" font-family="Arial Bold" font-size="18.00">public.organizations</text>
<text text-anchor="start" x="198.17" y="-210.6" font-family="Arial" font-size="14.00">    </text>
<text text-anchor="start" x="229.29" y="-210.6" font-family="Arial" font-size="14.00" fill="#666666">[BASE TABLE]</text>
<polygon fill="none" stroke="black" points="44.71,-166.4 44.71,-197.2 329.66,-197.2 329.66,-166.4 44.71,-166.4"/>
<text text-anchor="start" x="51.71" y="-178.6" font-family="Arial" font-size="14.00">organization_id </text>
<text text-anchor="start" x="150.56" y="-178.6" font-family="Arial" font-size="14.00" fill="#666666">[bigint]</text>
<polygon fill="none" stroke="black" points="44.71,-135.6 44.71,-166.4 329.66,-166.4 329.66,-135.6 44.71,-135.6"/>
<text text-anchor="start" x="51.71" y="-147.8" font-family="Arial" font-size="14.00">organization_name </text>
<text text-anchor="start" x="174.68" y="-147.8" font-family="Arial" font-size="14.00" fill="#666666">[varchar(255)]</text>
<polygon fill="none" stroke="black" points="44.71,-104.8 44.71,-135.6 329.66,-135.6 329.66,-104.8 44.71,-104.8"/>
<text text-anchor="start" x="51.71" y="-117" font-family="Arial" font-size="14.00">created_at </text>
<text text-anchor="start" x="121.76" y="-117" font-family="Arial" font-size="14.00" fill="#666666">[timestamp with time zone]</text>
<polygon fill="none" stroke="black" points="44.71,-74 44.71,-104.8 329.66,-104.8 329.66,-74 44.71,-74"/>
<text text-anchor="start" x="51.71" y="-86.2" font-family="Arial" font-size="14.00">updated_at </text>
<text text-anchor="start" x="125.67" y="-86.2" font-family="Arial" font-size="14.00" fill="#666666">[timestamp with time zone]</text>
<polygon fill="none" stroke="black" points="44.71,-43.2 44.71,-74 329.66,-74 329.66,-43.2 44.71,-43.2"/>
<text text-anchor="start" x="51.71" y="-55.4" font-family="Arial" font-size="14.00">deleted_at </text>
<text text-anchor="start" x="120.99" y="-55.4" font-family="Arial" font-size="14.00" fill="#666666">[timestamp with time zone]</text>
</g>
<!-- public.staffs -->
<g id="node2" class="node">
<title>public.staffs</title>
<polygon fill="#efefef" stroke="none" points="60.35,-570.8 60.35,-606.4 314.03,-606.4 314.03,-570.8 60.35,-570.8"/>
<polygon fill="none" stroke="black" points="60.35,-570.8 60.35,-606.4 314.03,-606.4 314.03,-570.8 60.35,-570.8"/>
<text text-anchor="start" x="80.7" y="-584.2" font-family="Arial Bold" font-size="18.00">public.staffs</text>
<text text-anchor="start" x="169.18" y="-584.2" font-family="Arial" font-size="14.00">    </text>
<text text-anchor="start" x="200.3" y="-584.2" font-family="Arial" font-size="14.00" fill="#666666">[BASE TABLE]</text>
<polygon fill="none" stroke="black" points="60.35,-540 60.35,-570.8 314.03,-570.8 314.03,-540 60.35,-540"/>
<text text-anchor="start" x="67.35" y="-552.2" font-family="Arial" font-size="14.00">staff_id </text>
<text text-anchor="start" x="116.37" y="-552.2" font-family="Arial" font-size="14.00" fill="#666666">[bigint]</text>
<polygon fill="none" stroke="black" points="60.35,-509.2 60.35,-540 314.03,-540 314.03,-509.2 60.35,-509.2"/>
<text text-anchor="start" x="67.35" y="-521.4" font-family="Arial" font-size="14.00">organization_id </text>
<text text-anchor="start" x="166.19" y="-521.4" font-family="Arial" font-size="14.00" fill="#666666">[bigint]</text>
<polygon fill="none" stroke="black" points="60.35,-478.4 60.35,-509.2 314.03,-509.2 314.03,-478.4 60.35,-478.4"/>
<text text-anchor="start" x="67.35" y="-490.6" font-family="Arial" font-size="14.00">email </text>
<text text-anchor="start" x="104.69" y="-490.6" font-family="Arial" font-size="14.00" fill="#666666">[varchar(255)]</text>
<polygon fill="none" stroke="black" points="60.35,-447.6 60.35,-478.4 314.03,-478.4 314.03,-447.6 60.35,-447.6"/>
<text text-anchor="start" x="67.35" y="-459.8" font-family="Arial" font-size="14.00">staff_name </text>
<text text-anchor="start" x="140.5" y="-459.8" font-family="Arial" font-size="14.00" fill="#666666">[varchar(255)]</text>
<polygon fill="none" stroke="black" points="60.35,-416.8 60.35,-447.6 314.03,-447.6 314.03,-416.8 60.35,-416.8"/>
<text text-anchor="start" x="67.35" y="-429" font-family="Arial" font-size="14.00">created_at </text>
<text text-anchor="start" x="137.39" y="-429" font-family="Arial" font-size="14.00" fill="#666666">[timestamp with time zone]</text>
<polygon fill="none" stroke="black" points="60.35,-386 60.35,-416.8 314.03,-416.8 314.03,-386 60.35,-386"/>
<text text-anchor="start" x="67.35" y="-398.2" font-family="Arial" font-size="14.00">updated_at </text>
<text text-anchor="start" x="141.3" y="-398.2" font-family="Arial" font-size="14.00" fill="#666666">[timestamp with time zone]</text>
<polygon fill="none" stroke="black" points="60.35,-355.2 60.35,-386 314.03,-386 314.03,-355.2 60.35,-355.2"/>
<text text-anchor="start" x="67.35" y="-367.4" font-family="Arial" font-size="14.00">deleted_at </text>
<text text-anchor="start" x="136.63" y="-367.4" font-family="Arial" font-size="14.00" fill="#666666">[timestamp with time zone]</text>
</g>
<!-- public.staffs&#45;&gt;public.organizations -->
<g id="edge1" class="edge">
<title>public.staffs:organization_id&#45;&gt;public.organizations:organization_id</title>
<path fill="none" stroke="black" stroke-dasharray="5,2" d="M325.1,-524.09C468.16,-509.37 479.75,-181.8 330.66,-181.8"/>
<polygon fill="black" stroke="black" points="325.35,-524.08 315.13,-520.09 320.02,-524.35 315.7,-524.57 315.7,-524.57 315.7,-524.57 320.02,-524.35 315.59,-529.08 325.35,-524.08"/>
</g>
<!-- public.staff_sessions -->
<g id="node3" class="node">
<title>public.staff_sessions</title>
<polygon fill="#efefef" stroke="none" points="43.2,-929 43.2,-964.6 331.17,-964.6 331.17,-929 43.2,-929"/>
<polygon fill="none" stroke="black" points="43.2,-929 43.2,-964.6 331.17,-964.6 331.17,-929 43.2,-929"/>
<text text-anchor="start" x="50.2" y="-942.4" font-family="Arial Bold" font-size="18.00">public.staff_sessions</text>
<text text-anchor="start" x="199.68" y="-942.4" font-family="Arial" font-size="14.00">    </text>
<text text-anchor="start" x="230.8" y="-942.4" font-family="Arial" font-size="14.00" fill="#666666">[BASE TABLE]</text>
<polygon fill="none" stroke="black" points="43.2,-898.2 43.2,-929 331.17,-929 331.17,-898.2 43.2,-898.2"/>
<text text-anchor="start" x="50.2" y="-910.4" font-family="Arial" font-size="14.00">session_id </text>
<text text-anchor="start" x="120.24" y="-910.4" font-family="Arial" font-size="14.00" fill="#666666">[bigint]</text>
<polygon fill="none" stroke="black" points="43.2,-867.4 43.2,-898.2 331.17,-898.2 331.17,-867.4 43.2,-867.4"/>
<text text-anchor="start" x="50.2" y="-879.6" font-family="Arial" font-size="14.00">staff_id </text>
<text text-anchor="start" x="99.23" y="-879.6" font-family="Arial" font-size="14.00" fill="#666666">[bigint]</text>
<polygon fill="none" stroke="black" points="43.2,-836.6 43.2,-867.4 331.17,-867.4 331.17,-836.6 43.2,-836.6"/>
<text text-anchor="start" x="50.2" y="-848.8" font-family="Arial" font-size="14.00">session_data </text>
<text text-anchor="start" x="136.59" y="-848.8" font-family="Arial" font-size="14.00" fill="#666666">[text]</text>
<polygon fill="none" stroke="black" points="43.2,-805.8 43.2,-836.6 331.17,-836.6 331.17,-805.8 43.2,-805.8"/>
<text text-anchor="start" x="50.2" y="-818" font-family="Arial" font-size="14.00">expires_at </text>
<text text-anchor="start" x="118.68" y="-818" font-family="Arial" font-size="14.00" fill="#666666">[timestamp with time zone]</text>
<polygon fill="none" stroke="black" points="43.2,-775 43.2,-805.8 331.17,-805.8 331.17,-775 43.2,-775"/>
<text text-anchor="start" x="50.2" y="-787.2" font-family="Arial" font-size="14.00">created_at </text>
<text text-anchor="start" x="120.25" y="-787.2" font-family="Arial" font-size="14.00" fill="#666666">[timestamp with time zone]</text>
</g>
<!-- public.staff_sessions&#45;&gt;public.staffs -->
<g id="edge2" class="edge">
<title>public.staff_sessions:staff_id&#45;&gt;public.staffs:staff_id</title>
<path fill="none" stroke="black" stroke-dasharray="5,2" d="M342.21,-880.53C403.22,-851.61 384.33,-555.4 315.03,-555.4"/>
<polygon fill="black" stroke="black" points="342.25,-880.52 331.51,-878.34 337.05,-881.7 332.83,-882.65 332.83,-882.65 332.83,-882.65 337.05,-881.7 333.49,-887.12 342.25,-880.52"/>
</g>
<!-- public.projects -->
<g id="node4" class="node">
<title>public.projects</title>
<polygon fill="#efefef" stroke="none" points="435.35,-959.8 435.35,-995.4 689.03,-995.4 689.03,-959.8 435.35,-959.8"/>
<polygon fill="none" stroke="black" points="435.35,-959.8 435.35,-995.4 689.03,-995.4 689.03,-959.8 435.35,-959.8"/>
<text text-anchor="start" x="446.71" y="-973.2" font-family="Arial Bold" font-size="18.00">public.projects</text>
<text text-anchor="start" x="553.18" y="-973.2" font-family="Arial" font-size="14.00">    </text>
<text text-anchor="start" x="584.29" y="-973.2" font-family="Arial" font-size="14.00" fill="#666666">[BASE TABLE]</text>
<polygon fill="none" stroke="black" points="435.35,-929 435.35,-959.8 689.03,-959.8 689.03,-929 435.35,-929"/>
<text text-anchor="start" x="442.35" y="-941.2" font-family="Arial" font-size="14.00">project_id </text>
<text text-anchor="start" x="506.94" y="-941.2" font-family="Arial" font-size="14.00" fill="#666666">[bigint]</text>
<polygon fill="none" stroke="black" points="435.35,-898.2 435.35,-929 689.03,-929 689.03,-898.2 435.35,-898.2"/>
<text text-anchor="start" x="442.35" y="-910.4" font-family="Arial" font-size="14.00">organization_id </text>
<text text-anchor="start" x="541.19" y="-910.4" font-family="Arial" font-size="14.00" fill="#666666">[bigint]</text>
<polygon fill="none" stroke="black" points="435.35,-867.4 435.35,-898.2 689.03,-898.2 689.03,-867.4 435.35,-867.4"/>
<text text-anchor="start" x="442.35" y="-879.6" font-family="Arial" font-size="14.00">project_name </text>
<text text-anchor="start" x="531.06" y="-879.6" font-family="Arial" font-size="14.00" fill="#666666">[varchar(255)]</text>
<polygon fill="none" stroke="black" points="435.35,-836.6 435.35,-867.4 689.03,-867.4 689.03,-836.6 435.35,-836.6"/>
<text text-anchor="start" x="442.35" y="-848.8" font-family="Arial" font-size="14.00">description </text>
<text text-anchor="start" x="513.94" y="-848.8" font-family="Arial" font-size="14.00" fill="#666666">[text]</text>
<polygon fill="none" stroke="black" points="435.35,-805.8 435.35,-836.6 689.03,-836.6 689.03,-805.8 435.35,-805.8"/>
<text text-anchor="start" x="442.35" y="-818" font-family="Arial" font-size="14.00">created_at </text>
<text text-anchor="start" x="512.39" y="-818" font-family="Arial" font-size="14.00" fill="#666666">[timestamp with time zone]</text>
<polygon fill="none" stroke="black" points="435.35,-775 435.35,-805.8 689.03,-805.8 689.03,-775 435.35,-775"/>
<text text-anchor="start" x="442.35" y="-787.2" font-family="Arial" font-size="14.00">updated_at </text>
<text text-anchor="start" x="516.3" y="-787.2" font-family="Arial" font-size="14.00" fill="#666666">[timestamp with time zone]</text>
<polygon fill="none" stroke="black" points="435.35,-744.2 435.35,-775 689.03,-775 689.03,-744.2 435.35,-744.2"/>
<text text-anchor="start" x="442.35" y="-756.4" font-family="Arial" font-size="14.00">deleted_at </text>
<text text-anchor="start" x="511.63" y="-756.4" font-family="Arial" font-size="14.00" fill="#666666">[timestamp with time zone]</text>
</g>
<!-- public.tasks -->
<g id="node5" class="node">
<title>public.tasks</title>
<polygon fill="#efefef" stroke="none" points="793.35,-975.2 793.35,-1010.8 1047.03,-1010.8 1047.03,-975.2 793.35,-975.2"/>
<polygon fill="none" stroke="black" points="793.35,-975.2 793.35,-1010.8 1047.03,-1010.8 1047.03,-975.2 793.35,-975.2"/>
<text text-anchor="start" x="815.2" y="-988.6" font-family="Arial Bold" font-size="18.00">public.tasks</text>
<text text-anchor="start" x="900.69" y="-988.6" font-family="Arial" font-size="14.00">    </text>
<text text-anchor="start" x="931.8" y="-988.6" font-family="Arial" font-size="14.00" fill="#666666">[BASE TABLE]</text>
<polygon fill="none" stroke="black" points="793.35,-944.4 793.35,-975.2 1047.03,-975.2 1047.03,-944.4 793.35,-944.4"/>
<text text-anchor="start" x="800.35" y="-956.6" font-family="Arial" font-size="14.00">task_id </text>
<text text-anchor="start" x="848.59" y="-956.6" font-family="Arial" font-size="14.00" fill="#666666">[bigint]</text>
<polygon fill="none" stroke="black" points="793.35,-913.6 793.35,-944.4 1047.03,-944.4 1047.03,-913.6 793.35,-913.6"/>
<text text-anchor="start" x="800.35" y="-925.8" font-family="Arial" font-size="14.00">project_id </text>
<text text-anchor="start" x="864.94" y="-925.8" font-family="Arial" font-size="14.00" fill="#666666">[bigint]</text>
<polygon fill="none" stroke="black" points="793.35,-882.8 793.35,-913.6 1047.03,-913.6 1047.03,-882.8 793.35,-882.8"/>
<text text-anchor="start" x="800.35" y="-895" font-family="Arial" font-size="14.00">title </text>
<text text-anchor="start" x="826.02" y="-895" font-family="Arial" font-size="14.00" fill="#666666">[varchar(255)]</text>
<polygon fill="none" stroke="black" points="793.35,-852 793.35,-882.8 1047.03,-882.8 1047.03,-852 793.35,-852"/>
<text text-anchor="start" x="800.35" y="-864.2" font-family="Arial" font-size="14.00">description </text>
<text text-anchor="start" x="871.94" y="-864.2" font-family="Arial" font-size="14.00" fill="#666666">[text]</text>
<polygon fill="none" stroke="black" points="793.35,-821.2 793.35,-852 1047.03,-852 1047.03,-821.2 793.35,-821.2"/>
<text text-anchor="start" x="800.35" y="-833.4" font-family="Arial" font-size="14.00">status </text>
<text text-anchor="start" x="841.59" y="-833.4" font-family="Arial" font-size="14.00" fill="#666666">[varchar(255)]</text>
<polygon fill="none" stroke="black" points="793.35,-790.4 793.35,-821.2 1047.03,-821.2 1047.03,-790.4 793.35,-790.4"/>
<text text-anchor="start" x="800.35" y="-802.6" font-family="Arial" font-size="14.00">created_at </text>
<text text-anchor="start" x="870.39" y="-802.6" font-family="Arial" font-size="14.00" fill="#666666">[timestamp with time zone]</text>
<polygon fill="none" stroke="black" points="793.35,-759.6 793.35,-790.4 1047.03,-790.4 1047.03,-759.6 793.35,-759.6"/>
<text text-anchor="start" x="800.35" y="-771.8" font-family="Arial" font-size="14.00">updated_at </text>
<text text-anchor="start" x="874.3" y="-771.8" font-family="Arial" font-size="14.00" fill="#666666">[timestamp with time zone]</text>
<polygon fill="none" stroke="black" points="793.35,-728.8 793.35,-759.6 1047.03,-759.6 1047.03,-728.8 793.35,-728.8"/>
<text text-anchor="start" x="800.35" y="-741" font-family="Arial" font-size="14.00">deleted_at </text>
<text text-anchor="start" x="869.63" y="-741" font-family="Arial" font-size="14.00" fill="#666666">[timestamp with time zone]</text>
</g>
<!-- public.roles -->
<g id="node6" class="node">
<title>public.roles</title>
<polygon fill="#efefef" stroke="none" points="1151.35,-929 1151.35,-964.6 1405.03,-964.6 1405.03,-929 1151.35,-929"/>
<polygon fill="none" stroke="black" points="1151.35,-929 1151.35,-964.6 1405.03,-964.6 1405.03,-929 1151.35,-929"/>
<text text-anchor="start" x="1173.7" y="-942.4" font-family="Arial Bold" font-size="18.00">public.roles</text>
<text text-anchor="start" x="1258.18" y="-942.4" font-family="Arial" font-size="14.00">    </text>
<text text-anchor="start" x="1289.3" y="-942.4" font-family="Arial" font-size="14.00" fill="#666666">[BASE TABLE]</text>
<polygon fill="none" stroke="black" points="1151.35,-898.2 1151.35,-929 1405.03,-929 1405.03,-898.2 1151.35,-898.2"/>
<text text-anchor="start" x="1158.35" y="-910.4" font-family="Arial" font-size="14.00">role_id </text>
<text text-anchor="start" x="1204.26" y="-910.4" font-family="Arial" font-size="14.00" fill="#666666">[bigint]</text>
<polygon fill="none" stroke="black" points="1151.35,-867.4 1151.35,-898.2 1405.03,-898.2 1405.03,-867.4 1151.35,-867.4"/>
<text text-anchor="start" x="1158.35" y="-879.6" font-family="Arial" font-size="14.00">role_name </text>
<text text-anchor="start" x="1228.39" y="-879.6" font-family="Arial" font-size="14.00" fill="#666666">[varchar(255)]</text>
<polygon fill="none" stroke="black" points="1151.35,-836.6 1151.35,-867.4 1405.03,-867.4 1405.03,-836.6 1151.35,-836.6"/>
<text text-anchor="start" x="1158.35" y="-848.8" font-family="Arial" font-size="14.00">created_at </text>
<text text-anchor="start" x="1228.39" y="-848.8" font-family="Arial" font-size="14.00" fill="#666666">[timestamp with time zone]</text>
<polygon fill="none" stroke="black" points="1151.35,-805.8 1151.35,-836.6 1405.03,-836.6 1405.03,-805.8 1151.35,-805.8"/>
<text text-anchor="start" x="1158.35" y="-818" font-family="Arial" font-size="14.00">updated_at </text>
<text text-anchor="start" x="1232.3" y="-818" font-family="Arial" font-size="14.00" fill="#666666">[timestamp with time zone]</text>
<polygon fill="none" stroke="black" points="1151.35,-775 1151.35,-805.8 1405.03,-805.8 1405.03,-775 1151.35,-775"/>
<text text-anchor="start" x="1158.35" y="-787.2" font-family="Arial" font-size="14.00">deleted_at </text>
<text text-anchor="start" x="1227.63" y="-787.2" font-family="Arial" font-size="14.00" fill="#666666">[timestamp with time zone]</text>
</g>
<!-- public.features -->
<g id="node7" class="node">
<title>public.features</title>
<polygon fill="#efefef" stroke="none" points="1509.35,-959.8 1509.35,-995.4 1763.03,-995.4 1763.03,-959.8 1509.35,-959.8"/>
<polygon fill="none" stroke="black" points="1509.35,-959.8 1509.35,-995.4 1763.03,-995.4 1763.03,-959.8 1509.35,-959.8"/>
<text text-anchor="start" x="1520.72" y="-973.2" font-family="Arial Bold" font-size="18.00">public.features</text>
<text text-anchor="start" x="1627.17" y="-973.2" font-family="Arial" font-size="14.00">    </text>
<text text-anchor="start" x="1658.29" y="-973.2" font-family="Arial" font-size="14.00" fill="#666666">[BASE TABLE]</text>
<polygon fill="none" stroke="black" points="1509.35,-929 1509.35,-959.8 1763.03,-959.8 1763.03,-929 1509.35,-929"/>
<text text-anchor="start" x="1516.35" y="-941.2" font-family="Arial" font-size="14.00">feature_id </text>
<text text-anchor="start" x="1582.5" y="-941.2" font-family="Arial" font-size="14.00" fill="#666666">[bigint]</text>
<polygon fill="none" stroke="black" points="1509.35,-898.2 1509.35,-929 1763.03,-929 1763.03,-898.2 1509.35,-898.2"/>
<text text-anchor="start" x="1516.35" y="-910.4" font-family="Arial" font-size="14.00">feature_name </text>
<text text-anchor="start" x="1606.63" y="-910.4" font-family="Arial" font-size="14.00" fill="#666666">[varchar(255)]</text>
<polygon fill="none" stroke="black" points="1509.35,-867.4 1509.35,-898.2 1763.03,-898.2 1763.03,-867.4 1509.35,-867.4"/>
<text text-anchor="start" x="1516.35" y="-879.6" font-family="Arial" font-size="14.00">operation </text>
<text text-anchor="start" x="1578.61" y="-879.6" font-family="Arial" font-size="14.00" fill="#666666">[varchar(255)]</text>
<polygon fill="none" stroke="black" points="1509.35,-836.6 1509.35,-867.4 1763.03,-867.4 1763.03,-836.6 1509.35,-836.6"/>
<text text-anchor="start" x="1516.35" y="-848.8" font-family="Arial" font-size="14.00">description </text>
<text text-anchor="start" x="1587.94" y="-848.8" font-family="Arial" font-size="14.00" fill="#666666">[text]</text>
<polygon fill="none" stroke="black" points="1509.35,-805.8 1509.35,-836.6 1763.03,-836.6 1763.03,-805.8 1509.35,-805.8"/>
<text text-anchor="start" x="1516.35" y="-818" font-family="Arial" font-size="14.00">created_at </text>
<text text-anchor="start" x="1586.39" y="-818" font-family="Arial" font-size="14.00" fill="#666666">[timestamp with time zone]</text>
<polygon fill="none" stroke="black" points="1509.35,-775 1509.35,-805.8 1763.03,-805.8 1763.03,-775 1509.35,-775"/>
<text text-anchor="start" x="1516.35" y="-787.2" font-family="Arial" font-size="14.00">updated_at </text>
<text text-anchor="start" x="1590.3" y="-787.2" font-family="Arial" font-size="14.00" fill="#666666">[timestamp with time zone]</text>
<polygon fill="none" stroke="black" points="1509.35,-744.2 1509.35,-775 1763.03,-775 1763.03,-744.2 1509.35,-744.2"/>
<text text-anchor="start" x="1516.35" y="-756.4" font-family="Arial" font-size="14.00">deleted_at </text>
<text text-anchor="start" x="1585.63" y="-756.4" font-family="Arial" font-size="14.00" fill="#666666">[timestamp with time zone]</text>
</g>
<!-- public.role_features -->
<g id="node8" class="node">
<title>public.role_features</title>
<polygon fill="#efefef" stroke="none" points="1867.22,-898.2 1867.22,-933.8 2149.15,-933.8 2149.15,-898.2 1867.22,-898.2"/>
<polygon fill="none" stroke="black" points="1867.22,-898.2 1867.22,-933.8 2149.15,-933.8 2149.15,-898.2 1867.22,-898.2"/>
<text text-anchor="start" x="1874.22" y="-911.6" font-family="Arial Bold" font-size="18.00">public.role_features</text>
<text text-anchor="start" x="2017.66" y="-911.6" font-family="Arial" font-size="14.00">    </text>
<text text-anchor="start" x="2048.78" y="-911.6" font-family="Arial" font-size="14.00" fill="#666666">[BASE TABLE]</text>
<polygon fill="none" stroke="black" points="1867.22,-867.4 1867.22,-898.2 2149.15,-898.2 2149.15,-867.4 1867.22,-867.4"/>
<text text-anchor="start" x="1874.22" y="-879.6" font-family="Arial" font-size="14.00">role_id </text>
<text text-anchor="start" x="1920.14" y="-879.6" font-family="Arial" font-size="14.00" fill="#666666">[bigint]</text>
<polygon fill="none" stroke="black" points="1867.22,-836.6 1867.22,-867.4 2149.15,-867.4 2149.15,-836.6 1867.22,-836.6"/>
<text text-anchor="start" x="1874.22" y="-848.8" font-family="Arial" font-size="14.00">feature_id </text>
<text text-anchor="start" x="1940.38" y="-848.8" font-family="Arial" font-size="14.00" fill="#666666">[bigint]</text>
<polygon fill="none" stroke="black" points="1867.22,-805.8 1867.22,-836.6 2149.15,-836.6 2149.15,-805.8 1867.22,-805.8"/>
<text text-anchor="start" x="1874.22" y="-818" font-family="Arial" font-size="14.00">created_at </text>
<text text-anchor="start" x="1944.27" y="-818" font-family="Arial" font-size="14.00" fill="#666666">[timestamp with time zone]</text>
</g>
<!-- public.project_members -->
<g id="node9" class="node">
<title>public.project_members</title>
<polygon fill="#efefef" stroke="none" points="2253.72,-959.8 2253.72,-995.4 2566.65,-995.4 2566.65,-959.8 2253.72,-959.8"/>
<polygon fill="none" stroke="black" points="2253.72,-959.8 2253.72,-995.4 2566.65,-995.4 2566.65,-959.8 2253.72,-959.8"/>
<text text-anchor="start" x="2260.72" y="-973.2" font-family="Arial Bold" font-size="18.00">public.project_members</text>
<text text-anchor="start" x="2435.16" y="-973.2" font-family="Arial" font-size="14.00">    </text>
<text text-anchor="start" x="2466.28" y="-973.2" font-family="Arial" font-size="14.00" fill="#666666">[BASE TABLE]</text>
<polygon fill="none" stroke="black" points="2253.72,-929 2253.72,-959.8 2566.65,-959.8 2566.65,-929 2253.72,-929"/>
<text text-anchor="start" x="2260.72" y="-941.2" font-family="Arial" font-size="14.00">project_member_id </text>
<text text-anchor="start" x="2384.44" y="-941.2" font-family="Arial" font-size="14.00" fill="#666666">[bigint]</text>
<polygon fill="none" stroke="black" points="2253.72,-898.2 2253.72,-929 2566.65,-929 2566.65,-898.2 2253.72,-898.2"/>
<text text-anchor="start" x="2260.72" y="-910.4" font-family="Arial" font-size="14.00">project_id </text>
<text text-anchor="start" x="2325.31" y="-910.4" font-family="Arial" font-size="14.00" fill="#666666">[bigint]</text>
<polygon fill="none" stroke="black" points="2253.72,-867.4 2253.72,-898.2 2566.65,-898.2 2566.65,-867.4 2253.72,-867.4"/>
<text text-anchor="start" x="2260.72" y="-879.6" font-family="Arial" font-size="14.00">staff_id </text>
<text text-anchor="start" x="2309.75" y="-879.6" font-family="Arial" font-size="14.00" fill="#666666">[bigint]</text>
<polygon fill="none" stroke="black" points="2253.72,-836.6 2253.72,-867.4 2566.65,-867.4 2566.65,-836.6 2253.72,-836.6"/>
<text text-anchor="start" x="2260.72" y="-848.8" font-family="Arial" font-size="14.00">role_id </text>
<text text-anchor="start" x="2306.64" y="-848.8" font-family="Arial" font-size="14.00" fill="#666666">[bigint]</text>
<polygon fill="none" stroke="black" points="2253.72,-805.8 2253.72,-836.6 2566.65,-836.6 2566.65,-805.8 2253.72,-805.8"/>
<text text-anchor="start" x="2260.72" y="-818" font-family="Arial" font-size="14.00">created_at </text>
<text text-anchor="start" x="2330.77" y="-818" font-family="Arial" font-size="14.00" fill="#666666">[timestamp with time zone]</text>
<polygon fill="none" stroke="black" points="2253.72,-775 2253.72,-805.8 2566.65,-805.8 2566.65,-775 2253.72,-775"/>
<text text-anchor="start" x="2260.72" y="-787.2" font-family="Arial" font-size="14.00">updated_at </text>
<text text-anchor="start" x="2334.68" y="-787.2" font-family="Arial" font-size="14.00" fill="#666666">[timestamp with time zone]</text>
<polygon fill="none" stroke="black" points="2253.72,-744.2 2253.72,-775 2566.65,-775 2566.65,-744.2 2253.72,-744.2"/>
<text text-anchor="start" x="2260.72" y="-756.4" font-family="Arial" font-size="14.00">deleted_at </text>
<text text-anchor="start" x="2330" y="-756.4" font-family="Arial" font-size="14.00" fill="#666666">[timestamp with time zone]</text>
</g>
<!-- public.schema_migrations -->
<g id="node10" class="node">
<title>public.schema_migrations</title>
<polygon fill="#efefef" stroke="none" points="2671.21,-882.8 2671.21,-918.4 2999.16,-918.4 2999.16,-882.8 2671.21,-882.8"/>
<polygon fill="none" stroke="black" points="2671.21,-882.8 2671.21,-918.4 2999.16,-918.4 2999.16,-882.8 2671.21,-882.8"/>
<text text-anchor="start" x="2678.21" y="-896.2" font-family="Arial Bold" font-size="18.00">public.schema_migrations</text>
<text text-anchor="start" x="2867.67" y="-896.2" font-family="Arial" font-size="14.00">    </text>
<text text-anchor="start" x="2898.79" y="-896.2" font-family="Arial" font-size="14.00" fill="#666666">[BASE TABLE]</text>
<polygon fill="none" stroke="black" points="2671.21,-852 2671.21,-882.8 2999.16,-882.8 2999.16,-852 2671.21,-852"/>
<text text-anchor="start" x="2678.21" y="-864.2" font-family="Arial" font-size="14.00">version </text>
<text text-anchor="start" x="2727.23" y="-864.2" font-family="Arial" font-size="14.00" fill="#666666">[bigint]</text>
<polygon fill="none" stroke="black" points="2671.21,-821.2 2671.21,-852 2999.16,-852 2999.16,-821.2 2671.21,-821.2"/>
<text text-anchor="start" x="2678.21" y="-833.4" font-family="Arial" font-size="14.00">dirty </text>
<text text-anchor="start" x="2708.55" y="-833.4" font-family="Arial" font-size="14.00" fill="#666666">[boolean]</text>
</g>
</g>
</svg>
